<?xml version="1.0"?>
<svg xmlns="http://www.w3.org/2000/svg" version="1" width="24" height="24" viewBox="0 0 24 24">
    <path d="M 9.3125 0 C 8.5125 0.2 7.7125 0.4875 6.8125 1.1875 C 4.3125 1.3875 1 3.09375 1 7.09375 L 1 8.90625 C 0.6 9.50625 0 10.69375 0 13.09375 C 0 13.69375 0.30625 14.3875 0.90625 14.6875 L 3.8125 16.3125 C 4.1125 16.5125 4.3875 16.59375 4.6875 16.59375 C 4.8875 16.59375 5.1875 16 5.1875 16 L 5.1875 17 C 5.1875 17.3 5.09375 17.6125 5.09375 17.8125 C 5.09375 18.3125 5 18.6125 5 19.3125 C 5 21.2125 6.9875 22.7875 8.1875 23.6875 C 8.4875 23.8875 8.8875 24 9.1875 24 L 14.6875 24 C 15.0875 24 15.4125 23.8875 15.8125 23.6875 C 17.0125 22.8875 19 21.2125 19 19.3125 C 19 18.6125 19.00625 18.2875 18.90625 17.6875 C 18.90625 17.4875 18.8125 17.20625 18.8125 16.90625 L 18.8125 15.90625 C 18.8125 15.90625 19.1125 16.5 19.3125 16.5 C 19.6125 16.5 19.9875 16.3875 20.1875 16.1875 L 23.09375 14.59375 C 23.69375 14.29375 24 13.7 24 13 C 24 10.7 23.3 9.50625 23 8.90625 L 23 7.09375 C 23 3.09375 19.59375 1.3875 17.09375 1.1875 C 16.19375 0.5875 15.3875 0.19375 14.6875 0.09375 L 14.40625 0.09375 L 9.59375 0.09375 C 9.49375 -0.00625 9.4125 0 9.3125 0 z M 9.5 1.5 L 9.59375 1.5 L 14.40625 1.5 L 14.5 1.5 C 15 1.6 15.7125 1.90625 16.3125 2.40625 L 16.59375 2.59375 L 17 2.59375 C 17.5 2.59375 21.5 3.2 21.5 7 C 21.5 7.7 21.50625 8.1875 21.40625 8.6875 L 21.3125 9.1875 L 21.59375 9.59375 C 21.79375 9.99375 22.40625 10.89375 22.40625 13.09375 C 22.50625 13.29375 22.4125 13.40625 22.3125 13.40625 L 19.8125 14.8125 C 19.8125 14.8125 18.6 14.9 18 13 C 17.9 14.9 17.3125 15.90625 17.3125 15.90625 L 17.3125 17.1875 C 17.3125 17.4875 17.40625 17.8 17.40625 18 C 17.50625 18.4 17.5 18.7125 17.5 19.3125 C 17.5 20.2125 16.5 21.40625 15 22.40625 C 14.9 22.40625 14.9125 22.5 14.8125 22.5 L 9.1875 22.5 C 9.0875 22.5 9.1 22.50625 9 22.40625 C 7.4 21.30625 6.5 20.1125 6.5 19.3125 C 6.5 18.7125 6.49375 18.5 6.59375 18 C 6.59375 17.8 6.6875 17.4875 6.6875 17.1875 L 6.6875 15.90625 C 6.6875 15.90625 5.9 14.2 6 13 C 5.4 14.1 4.1875 14.8125 4.1875 14.8125 L 1.59375 13.40625 C 1.49375 13.30625 1.40625 13.19375 1.40625 13.09375 C 1.40625 10.89375 1.9875 9.99375 2.1875 9.59375 L 2.5 9.1875 L 2.5 8.6875 C 2.5 8.2875 2.40625 7.7 2.40625 7 C 2.40625 3.2 6.40625 2.59375 6.90625 2.59375 L 7.3125 2.59375 L 7.59375 2.40625 C 8.39375 1.90625 9 1.6 9.5 1.5 z M 8.6875 12 C 7.9875 12.1 7.9125 12.69375 7.8125 13.09375 C 7.8125 13.49375 8.10625 13.8875 8.40625 14.1875 C 8.60625 14.4875 10.89375 14.79375 11.59375 14.09375 C 11.79375 13.79375 11.6875 13.30625 11.6875 12.90625 C 11.5875 12.10625 10.59375 12 10.59375 12 L 8.6875 12 z M 13.40625 12 C 13.40625 12 12.4125 12.10625 12.3125 12.90625 C 12.3125 13.30625 12.20625 13.79375 12.40625 14.09375 C 13.10625 14.79375 15.39375 14.4875 15.59375 14.1875 C 15.89375 13.8875 16.1875 13.49375 16.1875 13.09375 C 16.0875 12.69375 16.0125 12.1 15.3125 12 L 13.40625 12 z M 9.53125 14.84375 C 9.334375 14.848437 9.15 14.88125 9 14.90625 C 8.4 14.90625 8.2875 15.60625 8.1875 15.90625 C 8.0875 16.30625 8.4875 16.6125 8.6875 16.8125 C 8.9875 17.0125 10.99375 17.5125 11.59375 16.8125 C 11.79375 16.6125 11.6875 15.9875 11.6875 15.6875 C 11.6875 14.9875 10.8125 14.90625 10.8125 14.90625 C 10.8125 14.90625 10.121875 14.829688 9.53125 14.84375 z M 14.46875 14.84375 C 13.878125 14.829688 13.1875 14.90625 13.1875 14.90625 C 13.1875 14.90625 12.3125 14.9875 12.3125 15.6875 C 12.3125 15.9875 12.20625 16.6125 12.40625 16.8125 C 13.00625 17.5125 15.1125 17.0125 15.3125 16.8125 C 15.5125 16.6125 15.9125 16.30625 15.8125 15.90625 C 15.7125 15.60625 15.6 14.90625 15 14.90625 C 14.85 14.88125 14.665625 14.848437 14.46875 14.84375 z M 9.1875 17.59375 C 8.6875 17.59375 8.59375 18 8.59375 18.5 C 8.59375 19.2 9.20625 19.9125 9.40625 20.3125 C 9.60625 20.7125 11.09375 21.4875 11.59375 20.6875 C 11.79375 20.3875 11.6875 19.3125 11.6875 18.8125 C 11.6875 17.7125 10.90625 17.59375 10.90625 17.59375 L 9.1875 17.59375 z M 13.09375 17.59375 C 13.09375 17.59375 12.3125 17.7125 12.3125 18.8125 C 12.3125 19.3125 12.20625 20.3875 12.40625 20.6875 C 12.90625 21.4875 14.39375 20.7125 14.59375 20.3125 C 14.79375 19.9125 15.40625 19.2 15.40625 18.5 C 15.40625 18 15.3125 17.59375 14.8125 17.59375 L 13.09375 17.59375 z"/>
</svg>
