<?xml version="1.0"?>
<svg xmlns="http://www.w3.org/2000/svg" version="1" width="24" height="24" viewBox="0 0 24 24">
    <path d="M14.3,10.5C13.3,8.2,14.9,5,19.5,5c3.2,0,4.5,2.6,4.5,5.1c0,3.8-3.8,5.2-3.8,5.2S18.2,22,12.3,22c-2.1,0-3.2-0.3-4-0.3 c-0.8,0-1.6,0.4-2,0.4c-0.5,0-3.4-2.1-4.5-4.8C0.2,13.1,0.1,10,0,8.3c-0.2-2.3,0.2-3.7,1.3-4.8C2,2.9,2.9,2.1,3.9,2 c1.1-0.1,1.5,0.4,2.3,1c0.7,0.5,1,0.7,1.1,1.3C7.3,4.5,7.4,5,7,5c0.1,0.3-0.2,0.9-0.7,0.8c0.1,0.4-0.5,0.7-0.8,0.7 C5.6,6.8,5,6.9,4.8,6.9c-0.2,0-0.4,0-0.6-0.1c0,0-0.5-0.2-0.3-0.5C3.6,6.9,2.8,6.6,3.1,7.3C3.3,7.8,3.9,9.7,5.3,11 C7,12.5,7.5,13.9,8,15C8.2,13.8,9.1,9.7,14.3,10.5z"/>
</svg>
