<?xml version="1.0"?>
<svg xmlns="http://www.w3.org/2000/svg" version="1" width="24" height="24" viewBox="0 0 24 24">
    <path d="M10,0C8.9,1,7.2,3.8,6.8,5.8c-1,1-1,2.1-0.2,3.4c0.6,0.9,0.4,2.1,0.7,3.2c0.2,1,0.8,2,1.1,2.9c0.8,2.1,1.5,4.5,1,5.5 c-0.6,1-1.4,0.9-2.4,1.3c-1,0.4-1.7,0.6-2.1,0.7C3.9,22.9,4,23,4,23.2C4,23.7,4.4,24,4.9,24c0.3,0,0.5-0.1,0.8-0.2 C5.9,24,6.2,24,6.6,24c2.8,0,2.7-0.3,3.7-0.3c0.4,0,1.3,0.3,2.3,0.3c1,0,1.4-0.7,1.4-1.3c0-1.1-1-1.6-1.5-4.8 c-0.5-3.3,0.6-5.4,0.4-6.7C12.6,9,11,8.2,11.1,7.9c0.1-0.4,0.7-1.1,1.5-1.5c1-0.5,5.5-3.2,6.6-6.3H10z"/>
</svg>
