<?xml version="1.0"?>
<svg xmlns="http://www.w3.org/2000/svg" version="1" width="24" height="24" viewBox="0 0 24 24">
    <path d="M 9.3125 0 C 8.5125 0.2 7.7125 0.4875 6.8125 1.1875 C 4.3125 1.3875 1 3.09375 1 7.09375 L 1 8.90625 C 0.6 9.50625 0 10.69375 0 13.09375 C 0 13.69375 0.30625 14.3875 0.90625 14.6875 L 3.8125 16.3125 C 4.1125 16.5125 4.3875 16.59375 4.6875 16.59375 C 4.8875 16.59375 5.1875 16 5.1875 16 L 5.1875 17 C 5.1875 17.3 5.09375 17.6125 5.09375 17.8125 C 5.09375 18.3125 5 18.6125 5 19.3125 C 5 21.2125 6.9875 22.7875 8.1875 23.6875 C 8.4875 23.8875 8.8875 24 9.1875 24 L 14.6875 24 C 15.0875 24 15.4125 23.8875 15.8125 23.6875 C 17.0125 22.8875 19 21.2125 19 19.3125 C 19 18.6125 19.00625 18.2875 18.90625 17.6875 C 18.90625 17.4875 18.8125 17.20625 18.8125 16.90625 L 18.8125 15.90625 C 18.8125 15.90625 19.1125 16.5 19.3125 16.5 C 19.6125 16.5 19.9875 16.3875 20.1875 16.1875 L 23.09375 14.59375 C 23.69375 14.29375 24 13.7 24 13 C 24 10.7 23.3 9.50625 23 8.90625 L 23 7.09375 C 23 3.09375 19.59375 1.3875 17.09375 1.1875 C 16.19375 0.5875 15.3875 0.19375 14.6875 0.09375 L 14.40625 0.09375 L 9.59375 0.09375 C 9.49375 -0.00625 9.4125 0 9.3125 0 z M 9.5 1.5 L 9.59375 1.5 L 14.40625 1.5 L 14.5 1.5 C 15 1.6 15.7125 1.90625 16.3125 2.40625 L 16.53125 2.5625 C 16.141479 3.0064697 15.9375 3.65625 16 4.5 C 16 4.5 16.5 7.9 17.5 8.5 C 18.180802 8.9538682 20.170943 9.5266932 21.40625 9.34375 L 21.59375 9.59375 C 21.79375 9.99375 22.40625 10.89375 22.40625 13.09375 C 22.50625 13.29375 22.4125 13.40625 22.3125 13.40625 L 19.8125 14.8125 C 19.8125 14.8125 18.6 14.9 18 13 C 17.9 14.9 17.3125 15.90625 17.3125 15.90625 L 17.3125 17.1875 C 17.3125 17.4875 17.40625 17.8 17.40625 18 C 17.50625 18.4 17.5 18.7125 17.5 19.3125 C 17.5 20.2125 16.5 21.40625 15 22.40625 C 14.9 22.40625 14.9125 22.5 14.8125 22.5 L 9.1875 22.5 C 9.0875 22.5 9.1 22.50625 9 22.40625 C 7.4 21.30625 6.5 20.1125 6.5 19.3125 C 6.5 18.7125 6.49375 18.5 6.59375 18 C 6.59375 17.8 6.6875 17.4875 6.6875 17.1875 L 6.6875 15.90625 C 6.6875 15.90625 5.9 14.2 6 13 C 5.4 14.1 4.1875 14.8125 4.1875 14.8125 L 1.59375 13.40625 C 1.49375 13.30625 1.40625 13.19375 1.40625 13.09375 C 1.40625 10.89375 1.9875 9.99375 2.1875 9.59375 L 2.5 9.21875 C 3.7415672 9.4928834 5.7943768 8.9704155 6.5 8.5 C 7.5 7.9 8 4.5 8 4.5 C 8.0640625 3.6351562 7.8461194 2.9791205 7.4375 2.53125 L 7.59375 2.40625 C 8.39375 1.90625 9 1.6 9.5 1.5 z"/>
</svg>
